<svg xmlns="http://www.w3.org/2000/svg" fill="none" viewBox="0 0 747 80"><path fill="#fff" d="m452.49 35.47-5.46 5.2c-3.71-3.92-7.89-5.88-12.53-5.88-3.92 0-7.21 1.34-9.89 4.02-2.68 2.68-4.02 5.98-4.02 9.9 0 2.73.59 5.16 1.78 7.28s2.87 3.78 5.04 4.99c2.17 1.21 4.58 1.81 7.24 1.81 2.26 0 4.33-.42 6.21-1.27 1.87-.85 3.93-2.38 6.18-4.61l5.29 5.52c-3.03 2.95-5.89 5-8.58 6.15-2.69 1.14-5.77 1.71-9.22 1.71-6.37 0-11.58-2.02-15.64-6.06-4.06-4.04-6.09-9.22-6.09-15.53 0-4.09.92-7.72 2.77-10.89 1.85-3.18 4.49-5.73 7.94-7.66 3.44-1.93 7.15-2.9 11.13-2.9 3.38 0 6.63.71 9.76 2.14 3.13 1.43 5.83 3.46 8.09 6.09v-.01Zm33.31-8.23c5.8 0 10.78 2.1 14.96 6.3 4.17 4.2 6.26 9.31 6.26 15.35 0 6.04-2.06 11.04-6.17 15.18-4.12 4.14-9.11 6.21-14.98 6.21-6.15 0-11.26-2.13-15.33-6.38s-6.1-9.3-6.1-15.15c0-3.92.95-7.52 2.84-10.81 1.89-3.29 4.5-5.89 7.82-7.81 3.32-1.92 6.89-2.88 10.72-2.88l-.02-.01Zm-.08 7.63c-3.79 0-6.98 1.32-9.57 3.96-2.58 2.64-3.88 5.99-3.88 10.06 0 4.53 1.63 8.12 4.88 10.75 2.53 2.06 5.43 3.09 8.7 3.09 3.7 0 6.85-1.34 9.45-4.01 2.6-2.67 3.9-5.97 3.9-9.89 0-3.92-1.31-7.2-3.93-9.9s-5.81-4.05-9.57-4.05l.02-.01Zm39.75-6.6h7.6l9.5 28.58 9.59-28.58h7.6l6.87 40.98h-7.54l-4.39-25.88-8.71 25.88h-6.87l-8.63-25.88-4.5 25.88h-7.61l7.1-40.98h-.01Zm54.47 0h8.27c4.48 0 7.7.41 9.68 1.24 1.98.83 3.54 2.16 4.68 4.01 1.14 1.85 1.71 4.06 1.71 6.64 0 2.86-.75 5.24-2.24 7.13-1.5 1.89-3.52 3.21-6.09 3.96-1.5.43-4.24.64-8.22.64v17.36h-7.8V28.27h.01Zm7.8 16.02h2.48c1.95 0 3.31-.14 4.07-.42a3.66 3.66 0 0 0 1.8-1.38c.44-.64.65-1.42.65-2.33 0-1.58-.61-2.74-1.84-3.47-.89-.54-2.54-.81-4.96-.81h-2.2v8.41Zm43.82-16.02h7.91l15.76 40.98h-8.11l-3.21-8.44h-16.72l-3.33 8.44h-8.11l15.8-40.98h.01Zm4 10.86-5.5 14.07h10.96l-5.47-14.07h.01Zm32.86-10.86h7.48l17.53 26.97V28.27h7.8v40.98h-7.5l-17.51-26.88v26.88h-7.8V28.27Zm46.4 0h8.37l7.64 14.74 7.61-14.74h8.27L734.72 51.5v17.75h-7.86V51.5l-12.05-23.23h.01ZM0 28.31h22.7v7.71h-7.48v33.37H7.29V36.02H0v-7.71Zm35.19 0h7.93v15.5h13.71v-15.5h7.9v41.08h-7.9V51.38H43.12v18.01h-7.93V28.31Zm46.1 0h22.42v7.65H89.05v7.43h14.66v7.51H89.05v10.81h14.66v7.68H81.29V28.31ZM134.89.16l-.63 70.87 22.02 6.41 20.69-13.63 5.38 2.69 10.91 6.73 45.78-1.01 31.61.29 19.49-.68.48-1.66 1.8 1.59 35.11-1.22 8.24-1.3 11.44 3.66 27.92-1.18-.57-49.44-21.6.31.2 4.32-2.19-2.79-7.03-1.72-6.5 1.86-6.04 4.37-5.77-6.1-12.57.13-22.06.15-21.23-.08-.67 10.02-8.29-6.5-4.99-3.06-5.24-.59-6.16 1.06-4.57 1.99-2.12-3.5-13.52.33-1.55 4.76-3.85-4.51-12.52-.59 3.04 10.74-6.37-7.23-5.04-2.26-5.18-.9-5.17.9-5.44 2.72-4.78-14.46-8.49-7.69L160.63.7l-10.71.2-15.03-.74Z"/><path fill="#000" d="M153.65 42.66h-3.06c-.47 0-.68.43-.67.92v10.78c0 .45.42.67.66.67h2.25c1.17 0 2.23-.14 3.2-.71.97-.56 2.25-1.96 2.36-4.78.11-2.82-.31-3.87-1.24-5.18-.93-1.3-2.9-1.7-3.51-1.7h.01Zm-3.12-14.36h2.13c1.11 0 2.12-.13 3.04-.66.92-.53 2.13-1.85 2.24-4.5.11-2.65-.29-3.64-1.18-4.87-.89-1.23-2.75-1.6-3.33-1.6h-2.91c-.44 0-.65.4-.64.86v10.14c0 .42.39.63.63.63h.02Zm42.66 8.66c-2.17.02-3.46 1.41-4.55 5-1.02 3.35-.72 9.03.45 12.09 1.17 3.06 3.25 3.59 4.31 3.49 1.06-.1 2.82-.69 3.81-2.92.98-2.23 1.75-6.2.98-11.02-.77-4.82-2.73-6.67-5-6.65v.01Zm191.66 5.87V30.28c0-.24-.14-.43-.3-.55-.16-.12-9.65-7.19-10.01-7.45-.35-.26-.39-.33-.82-.33h-20.1c-.57 0-.66.33-.67.64-.01.31 0 2.21 0 2.21s-1.95-1.65-5.18-2.48c-3.19-.82-7.05-.16-10 1.17-2.95 1.33-4.91 3.65-4.91 3.65s-6.25-4.7-6.54-4.97c-.29-.26-.59-.24-.59-.24h-11.88c-.31 0-.41.04-.61.21-.21.17-.19.5-.19.5s-.6-.46-.77-.57c-.17-.11-.29-.17-.5-.15-.21.02-10.19 0-10.19 0h-9.79c-.16 0-.48.01-.67.25-.19.25-.14.61-.14.61l-.95-.68a.96.96 0 0 0-.61-.19H269.4c-.48 0-.73.42-.71.73.01.31 0 8.94 0 8.94s-7.78-6.1-8.08-6.34c-.69-.56-1.93-1.51-4.01-2.34-2.15-.85-5.02-1.06-5.79-1.06-.77 0-3.11 0-5.56.83-2.45.83-3.91 1.92-3.91 1.92s-2.66-1.98-2.99-2.23c-.33-.24-.5-.23-.63-.23h-12.97c-.3 0-.49.21-.55.34-.06.13-1.13 2.53-1.13 2.53s-3.19-2.36-3.52-2.62c-.33-.25-.42-.26-.65-.26h-12.62c-.52 0-.68.28-.68.28-.19.21-.12.5 0 .8.22.55 2.52 6.77 2.52 6.77s-2.07-2.13-3.47-3.44c-1.4-1.31-3.95-4.17-10.13-4.62-6.17-.46-10.21 2.49-10.21 2.49-.79-4.23-2.41-9.14-7.42-14.73-3.3-3.68-7.75-6.36-9.75-7.25-1.53-.68-4.38-2.16-9.68-2.29h-22.58c-.42 0-.62.41-.62.69v70.19c0 .78.12.9.36 1.09.24.19 8.83 7.28 9.21 7.6.38.33.52.26.92.26h20.55c6.72 0 10.28-1.6 13.43-4.55 3.1-2.9 4.56-7.4 4.56-7.4s6.92 5.17 9.46 7.02c2.52 1.84 6.39 2.36 6.72 2.38.33.02 2.02.34 5.16-.21 3.15-.55 5.57-2.31 5.57-2.31s4.13 3.06 4.43 3.29c.3.23.42.26.75.26h12.87c.41 0 .61-.23.7-.43.09-.2 1.36-2.95 1.36-2.95s3.84 2.87 4.17 3.12c.33.25.49.25.7.25h12.51c.48 0 .55-.13.7-.27.15-.14.16-.4.07-.61l-1.99-5.2s1.86 1.25 3.44 2.3c1.58 1.05 4.03 2.59 7.76 2.8 3.73.22 6.06-.46 8.55-1.58 2.49-1.12 4.43-3.41 4.43-3.41s7.45 5.39 7.72 5.59c.28.2.42.38.82.38h11.29c.45 0 .68-.32.68-.68v-6.57s9.52 6.89 9.69 7.03c.16.13.28.23.59.22.31-.01 10.64 0 11.28 0 .64 0 .73-.47.73-.73v-6.19l8.73 6.47c.25.2.5.48.99.48h11.72c.81 0 .88-.53.88-.88v-8.37s8.1 5.89 10.51 7.62c2.14 1.53 6.12 2.21 7.69 2.21 1.57 0 3.2-.34 4.23-.65 1.03-.31 3.05-1.22 3.05-1.22s2.1 1.58 2.29 1.71c.19.13.3.16.5.16h20.18c.55 0 .65-.45.65-.65V66.04c0-.23-.15-.44-.31-.56-.13-.1-8.7-6.49-8.7-6.49h7.42c.36 0 .62-.38.62-.62v-8.69c0-.34-.2-.55-.35-.67l-7.5-5.56h8.23c.38 0 .6-.42.6-.65l-.03.03ZM173.43 56.38c-.48 2.33-1.73 6.07-3.18 7.91-1.45 1.84-4.23 5.86-10.97 6.34-6.75.48-15.28.22-16.27.22h-7.45l.02-69.39h22.27c2.39 0 7.86.86 10.86 3.68 3.15 2.97 4.98 7.15 5 13.82.02 6.67-1.42 10.93-2.57 12.77-1.15 1.83-2.06 2.77-2.89 3.39-.83.62-1.34.93-1.52 1.06-.18.13-.32.66.01.9.34.25 2.62 1.76 3.44 2.75.81 1 2.66 2.92 3.28 6.19.62 3.27.45 8.02-.03 10.35v.01Zm19.81 13.63c-7.23-.02-12.39-4.17-14.82-11.83-2.32-7.3-1.63-16.29-.35-21.48 1.38-5.58 4.76-13.28 15.16-13.52 1.3-.03 5.46.15 8.88 2.81 3.42 2.66 5.83 6.56 6.8 12.45.97 5.89.98 8.3.56 12.02-.43 3.72-1.05 9.1-3.72 12.99-1.91 2.79-5.76 6.59-12.5 6.58l-.01-.02Zm32.6-.03s-2.91-6.51-3.03-6.76c-.12-.25-.23-.59-.68-.59-.45 0-.59.34-.69.58-.1.25-3.14 6.79-3.14 6.79h-11.77s9.2-21.92 9.3-22.23c.1-.3.15-.4-.04-.88s-8.76-23.48-8.76-23.48h11.57s2.54 5.55 2.71 5.9c.17.35.38.5.59.5.21 0 .5-.04.69-.49.19-.45 2.62-5.88 2.62-5.88h11.67s-8.63 23.07-8.71 23.28c-.08.2-.18.49-.04.83.14.34 9.16 22.45 9.16 22.45h-11.43l-.02-.02Zm40.93-19.55c-.43 3.72-1.05 9.1-3.72 12.99-1.91 2.79-5.76 6.59-12.5 6.58-7.23-.02-12.39-4.17-14.82-11.83-2.32-7.3-1.63-16.29-.35-21.48 1.38-5.58 4.76-13.28 15.16-13.52 1.3-.03 5.46.15 8.88 2.81 3.42 2.66 5.83 6.56 6.8 12.45.97 5.89.98 8.3.56 12.02l-.01-.02Zm22.2-16.49h-7.91c-.48 0-.95.11-.95.95v6.67c0 .38.28.54.54.54h7.87v9.44h-7.95c-.42 0-.69.29-.69.69v17.84l-9.82.02V23.27h18.9v10.69l.01-.02Zm22.2-.02h-7.91c-.48 0-.95.11-.95.95v6.67c0 .38.28.54.54.54h7.87v9.44h-7.95c-.42 0-.69.29-.69.69v17.84l-9.82.02V23.25h18.9v10.69l.01-.02Zm13.98 36.19h-10.77l-.02-46.91h10.79v46.91Zm25.99-33.99s-1.05-.77-3.27-.94c-1.84-.14-3.46 0-5.37 1.7-1.52 1.36-2.31 4.61-2.51 5.88-.2 1.27-.42 5.32-.07 7.6.35 2.28.99 4.05 1.83 5.24.83 1.18 2.32 2.19 4.52 2.28 2.2.09 4.88-1.36 4.88-1.36v11.59s-1.37.76-3.73 1.56-4.92.74-8.11-.2c-3.02-.89-5.64-3.17-7.5-6.38-1.86-3.21-2.86-7.36-3.13-9.29-.34-2.37-.52-5.13-.46-7.95.06-2.72.64-7.7 2.28-11.94 1.63-4.24 3.69-6.85 6.56-8.53 2.93-1.71 4.99-2.06 8.03-2.08 2.94-.01 6.05 1.82 6.05 1.82v11.01-.01Zm22.07-1.65h-8.16c-.37 0-.83.13-.83.83v6.56c0 .33.17.71.71.71h7.28v7.45H365c-.37 0-.76.01-.76.76v7.56c0 .27.18.69.69.69h8.27v11.04h-18.97V23.23h18.97v11.25l.01-.01Zm-122.72 2.47c-2.17.02-3.46 1.41-4.55 5-1.02 3.35-.72 9.03.45 12.09 1.17 3.07 3.25 3.59 4.31 3.49 1.06-.09 2.82-.69 3.81-2.92.98-2.23 1.75-6.2.98-11.02-.76-4.81-2.73-6.67-5-6.65v.01ZM383.3 23.07h.12c.12 0 .21-.02.27-.06.06-.04.09-.1.09-.19s-.03-.15-.09-.18c-.06-.04-.15-.05-.27-.05h-.12v.49-.01Zm0 .31v.7h-.38v-1.81h.53c.25 0 .43.04.55.13.12.09.18.23.18.41 0 .11-.03.2-.09.28-.06.08-.14.15-.25.2.27.41.45.67.53.79h-.43l-.43-.7h-.21Z"/><path fill="#000" d="M383.53 25.42a2.19 2.19 0 1 1-.001-4.379 2.19 2.19 0 0 1 .001 4.379Zm0-3.95c-.97 0-1.76.79-1.76 1.76s.79 1.76 1.76 1.76 1.76-.79 1.76-1.76-.79-1.76-1.76-1.76Z"/></svg>