<svg xmlns="http://www.w3.org/2000/svg" viewBox="0 0 960 161.19"><path fill="#fff" d="M231.71 130.84c9.24 0 17.14-3.61 21.65-8.57l27.07 15.56c-11.05 15.34-27.75 23.24-49.18 23.24-38.57 0-62.48-25.94-62.48-59.56S193.13 42 228.77 42c32.94 0 57.3 25.49 57.3 59.55a65.79 65.79 0 0 1-1.35 13.54h-80.08c4.28 11.69 14.66 15.75 27.07 15.75Zm20.75-41.06C248.85 76.7 238.7 72 228.55 72c-12.86 0-21.43 6.32-24.59 17.82Zm162.76 11.73c0 33.62-24.36 59.56-53.92 59.56-15.11 0-26.16-5.19-33.61-13.76v10.6h-33.83V0h33.83v55.72C335.14 47.15 346.19 42 361.3 42c29.56 0 53.92 25.9 53.92 59.51Zm-33.84 0c0-16.92-11.28-27.51-26.84-27.51s-26.85 10.6-26.85 27.52S339 129 354.54 129s26.84-10.57 26.84-27.49Zm100.67 29.33c9.25 0 17.14-3.61 21.65-8.57l27.07 15.56c-11 15.34-27.74 23.24-49.17 23.24-38.58 0-62.49-25.94-62.49-59.56S443.47 42 479.11 42c32.94 0 57.3 25.49 57.3 59.55a65.79 65.79 0 0 1-1.35 13.54H455c4.26 11.69 14.64 15.75 27.05 15.75Zm20.75-41.06C499.19 76.7 489 72 478.89 72c-12.89 0-21.43 6.28-24.59 17.78ZM661.67 0v157.91h-33.84v-10.6c-7.44 8.57-18.5 13.76-33.61 13.76-29.55 0-53.91-25.94-53.91-59.56S564.67 42 594.22 42c15.11 0 26.17 5.19 33.61 13.76V0Zm-33.84 101.51C627.83 84.59 616.55 74 601 74s-26.85 10.6-26.85 27.52S585.42 129 601 129s26.83-10.57 26.83-27.49Zm45.55-56.39h33.83v112.79h-33.83Zm163 0v112.79h-33.84v-10.6c-7.44 8.57-18.49 13.76-33.61 13.76-29.55 0-53.91-25.94-53.91-59.56S739.38 42 768.93 42c15.12 0 26.17 5.19 33.61 13.76V45.12Zm-33.84 56.39c0-16.92-11.28-27.51-26.84-27.51s-26.84 10.6-26.84 27.52S760.13 129 775.7 129s26.84-10.57 26.84-27.49ZM139.65 45.12l-17.46 56.39-17.46-56.39H69.82l-17.45 56.39-17.46-56.39H0l34.91 112.79h34.91l17.46-56.4 17.45 56.4h34.92l34.91-112.79h-34.91zm550.95-9.93A17.21 17.21 0 0 1 677.89 30a17.42 17.42 0 0 1-5.19-12.78 16.39 16.39 0 0 1 5.19-12.07A17.39 17.39 0 0 1 690.6 0a16.58 16.58 0 0 1 12.2 5.12 16.56 16.56 0 0 1 5.09 12.07A17.61 17.61 0 0 1 702.8 30a16.42 16.42 0 0 1-12.2 5.19Zm231.21 9.93L886.9 157.91h-34.91L886.9 45.12h34.91zm19.43 116.07a18.69 18.69 0 0 1-13.8-5.66 18.93 18.93 0 0 1-5.63-13.87 17.81 17.81 0 0 1 5.63-13.1 18.91 18.91 0 0 1 13.8-5.55A18.9 18.9 0 0 1 960 141.66a19.11 19.11 0 0 1-5.52 13.87 17.81 17.81 0 0 1-13.24 5.66Z"/></svg>