<svg xmlns="http://www.w3.org/2000/svg" viewBox="0 0 366.96 79.77"><path fill="#fecc00" d="M45.39 2.28A2.695 2.695 0 0 0 42.3.04l-11.37 1.8c.76 4.77-2.5 9.24-7.27 10-4.77.76-9.25-2.5-10.01-7.26L2.28 6.38A2.7 2.7 0 0 0 .03 9.46l10.78 68.03a2.695 2.695 0 0 0 3.09 2.24l11.37-1.8a8.747 8.747 0 0 1 7.27-10c4.77-.76 9.25 2.5 10.01 7.26l11.37-1.8a2.71 2.71 0 0 0 2.25-3.09L45.39 2.28Z"/><path fill="#262626" d="m31.46 54.83-1.31-7.12c-.1-.5-.53-1.13-.94-1.45-1.37-1.07-5.08 1.2-3.34-6.98 1.74-8.17 4.21-4.6 5.89-5.02.5-.12 1.15-.52 1.45-.94l4.09-5.97c.48-.7.43-1.81-.17-2.42-1.13-1.17-2.97-2.87-4.37-3.17-3.03-.64-10.37 4.13-12.94 16.23-2.57 12.11 2.2 19.45 5.22 20.09 1.4.3 3.77-.51 5.28-1.12.79-.32 1.29-1.3 1.14-2.14"/><path fill="#fff" d="m68.45 61.48 20.68-44.46c.2-.4.66-.73 1.12-.73h.66c.46 0 .93.33 1.12.73l20.68 44.46c.4.86-.13 1.72-1.12 1.72h-7.33c-1.19 0-1.72-.4-2.31-1.65l-2.38-5.22H81.6l-2.38 5.29c-.33.79-1.06 1.59-2.38 1.59h-7.27c-.99 0-1.52-.86-1.12-1.72ZM95.6 47.34l-5.02-10.9h-.07l-4.95 10.9H95.6Zm20.55-29.13c0-.66.53-1.26 1.26-1.26h7.86c.66 0 1.26.59 1.26 1.26v35.28h15.72c.73 0 1.26.59 1.26 1.26v7.2c0 .66-.53 1.26-1.26 1.26h-24.84c-.73 0-1.26-.59-1.26-1.26V18.21Zm31.77 0c0-.66.53-1.26 1.26-1.26h7.86c.66 0 1.26.59 1.26 1.26v35.28h15.72c.73 0 1.26.59 1.26 1.26v7.2c0 .66-.53 1.26-1.26 1.26h-24.84c-.73 0-1.26-.59-1.26-1.26V18.21Zm52.82-1.91c13.21 0 23.78 10.64 23.78 23.85s-10.57 23.72-23.78 23.72-23.72-10.5-23.72-23.72 10.5-23.85 23.72-23.85Zm0 37c7.27 0 13.21-5.95 13.21-13.15S208 26.87 200.74 26.87s-13.15 6.01-13.15 13.28 5.95 13.15 13.15 13.15Zm51.23-37c6.61 0 11.5 2.05 15.99 6.14.59.53.59 1.32.07 1.85l-5.15 5.35c-.46.46-1.19.46-1.65 0-2.44-2.18-5.68-3.37-8.92-3.37-7.47 0-12.95 6.21-12.95 13.61s5.55 13.41 13.01 13.41c3.11 0 6.47-1.12 8.85-3.17.46-.4 1.32-.4 1.72.07l5.15 5.48c.46.46.4 1.32-.07 1.78-4.49 4.36-10.17 6.41-16.05 6.41-13.21 0-23.85-10.5-23.85-23.72s10.64-23.85 23.85-23.85Zm21.99 1.91c0-.66.59-1.26 1.26-1.26h7.93c.66 0 1.26.59 1.26 1.26v43.74c0 .66-.59 1.26-1.26 1.26h-7.93c-.66 0-1.26-.59-1.26-1.26V18.21Zm16.87-.06c0-.66.6-1.19 1.26-1.19h1.35c.83 0 1.69.68 1.94.92l24.72 23.79h.07V18.22c0-.66.53-1.26 1.26-1.26h7.93c.66 0 1.26.59 1.26 1.26v43.8c0 .66-.59 1.19-1.26 1.19h-1.28c-.76 0-1.37-.41-2.12-1.18l-24.61-24.72h-.07v24.64c0 .66-.53 1.26-1.26 1.26h-7.86c-.66 0-1.26-.59-1.26-1.26l-.07-43.8Zm74.88 8.52c.73 0 1.26-.59 1.26-1.26v-7.2c0-.66-.53-1.26-1.26-1.26h-9.38l3.26-2.3c.44-.44.68-1.17-.06-2.02l-3.06-3.3c-.45-.51-1.39-.16-1.72.19l-7.53 7.32-.08.11h-8.79c-.73 0-1.26.59-1.26 1.26v43.74c0 .66.53 1.26 1.26 1.26h27.35c.73 0 1.26-.59 1.26-1.26v-7.2c0-.66-.53-1.26-1.26-1.26h-18.3v-8.92h15.06c.66 0 1.26-.53 1.26-1.26v-7.2c0-.66-.59-1.26-1.26-1.26H347.4v-8.19h18.3Z"/></svg>